HIERARCHY
ROOT Hips
{
     OFFSET 25.06930 95.55770 6.14111
     CHANNELS 6 Xposition Yposition Zposition Zrotation Xrotation Yrotation
     JOINT Spine
     {
          OFFSET 0.00000 11.89050 0.00000
          CHANNELS 3 Zrotation Xrotation Yrotation
          JOINT Spine1
          {
               OFFSET 0.00000 25.65740 0.12766
               CHANNELS 3 Zrotation Xrotation Yrotation
               JOINT HEad
               {
                    OFFSET 0.00000 8.73416 0.01134
                    CHANNELS 3 Zrotation Xrotation Yrotation
                    End Site
                    {
                         OFFSET -0.29000 12.77420 2.51395
                    }
               }
               JOINT LeftShoulder1
               {
                    OFFSET 8.99000 -0.36225 -0.22000
                    CHANNELS 3 Zrotation Xrotation Yrotation
                    JOINT LeftArm
                    {
                         OFFSET 10.28270 -0.00338 0.32212
                         CHANNELS 3 Zrotation Xrotation Yrotation
                         JOINT LeftForeArm
                         {
                              OFFSET 32.76690 0.09914 -1.42434
                              CHANNELS 3 Zrotation Xrotation Yrotation
                              JOINT LeftHand
                              {
                                   OFFSET 27.56430 0.08536 1.02216
                                   CHANNELS 3 Zrotation Xrotation Yrotation
                                   End Site
                                   {
                                        OFFSET 16.74430 -0.60000 1.50291
                                   }
                              }
                         }
                    }
               }
               JOINT RightShoulder
               {
                    OFFSET -8.99000 -0.36225 -0.22000
                    CHANNELS 3 Zrotation Xrotation Yrotation
                    JOINT RightArm
                    {
                         OFFSET -10.28270 -0.00338 0.32212
                         CHANNELS 3 Zrotation Xrotation Yrotation
                         JOINT RightForeArm
                         {
                              OFFSET -32.89710 0.09914 -1.42434
                              CHANNELS 3 Zrotation Xrotation Yrotation
                              JOINT RightHand
                              {
                                   OFFSET -27.49210 0.08536 1.02216
                                   CHANNELS 3 Zrotation Xrotation Yrotation
                                   End Site
                                   {
                                        OFFSET -16.63120 -0.60000 1.50291
                                   }
                              }
                         }
                    }
               }
          }
     }
     JOINT LeftUpLeg
     {
          OFFSET 8.94580 -8.66707 0.10165
          CHANNELS 3 Zrotation Xrotation Yrotation
          JOINT LeftLeg
          {
               OFFSET -0.00000 -44.42270 1.37270
               CHANNELS 3 Zrotation Xrotation Yrotation
               JOINT LeftFoot
               {
                    OFFSET -0.25355 -42.09240 -1.46059
                    CHANNELS 3 Zrotation Xrotation Yrotation
                    JOINT LeftToes
                    {
                         OFFSET -0.04000 -4.41509 8.49910
                         CHANNELS 3 Zrotation Xrotation Yrotation
                         End Site
                         {
                              OFFSET 0.08000 -0.04745 9.77979
                         }
                    }
               }
          }
     }
     JOINT RightUpLeg
     {
          OFFSET -8.94580 -8.66707 0.10165
          CHANNELS 3 Zrotation Xrotation Yrotation
          JOINT RightLeg
          {
               OFFSET -0.00000 -44.42270 1.37270
               CHANNELS 3 Zrotation Xrotation Yrotation
               JOINT RightFoot
               {
                    OFFSET 0.25355 -42.09240 -1.46059
                    CHANNELS 3 Zrotation Xrotation Yrotation
                    JOINT RightToes
                    {
                         OFFSET 0.04000 -4.41509 8.49910
                         CHANNELS 3 Zrotation Xrotation Yrotation
                         End Site
                         {
                              OFFSET -0.08000 -0.13745 9.77979
                         }
                    }
               }
          }
     }
}
MOTION
Frames: 19
Frame Time: 0.01667
-7.45421 95.29520 -13.74090 9.87500 3.21774 85.70390 -7.91871 8.46058 0.09096 -2.33493 17.41320 -1.94467 1.12788 -14.00430 11.63310 -0.00000 -0.00000 0.00000 -122.59500 -75.23390 -91.63150 -41.46420 56.63460 -77.00740 17.24470 7.15719 -14.59280 17.85220 0.48700 -0.07231 77.53130 -8.62148 69.24210 16.08170 33.16350 102.91900 18.57210 11.77090 6.84112 16.18620 3.21033 -7.81291 -37.27770 17.62270 87.25460 -14.64680 -1.68742 0.76331 5.86815 -18.01790 -48.71350 -25.49320 8.71028 2.44891 47.41550 -1.55902 -69.40310 -33.12420 -9.50842 -0.74116 2.60947 -27.28060 3.06420 
-7.90944 95.40110 -14.15070 9.51985 2.58882 90.06530 -5.87680 8.54810 -0.23792 -2.32031 17.33540 -1.89804 0.80374 -13.56900 8.74199 -0.00000 -0.00000 0.00000 -116.66200 -72.81860 -87.32670 -39.73940 56.62770 -77.56850 20.72510 6.37632 -15.64720 18.58690 0.44221 -0.34211 77.63610 -9.68656 69.52670 17.09470 33.43940 102.70900 19.26440 11.89780 7.17789 16.41400 1.87045 -8.80808 -35.47960 17.40820 86.39990 -15.28870 -3.27122 0.59476 6.51128 -15.67790 -50.83100 -24.70550 9.34659 2.58756 46.88210 -1.61336 -68.18860 -33.12900 -7.94968 -0.26095 2.75999 -28.78860 2.86792 
-8.36998 95.56840 -14.26050 9.35083 2.96804 93.93950 -6.39153 8.36456 -0.04952 -2.24180 16.93750 -1.74742 1.21809 -12.50780 6.23336 -0.00000 -0.00000 0.00000 -115.19800 -71.61610 -86.70490 -38.00480 56.32170 -78.95190 20.29770 6.58504 -14.90170 20.00740 0.49279 -0.19889 76.12140 -10.57350 68.89860 16.51040 33.29170 103.58000 17.78780 11.84410 7.77298 16.08260 2.12758 -7.18944 -33.46200 16.15110 82.40540 -12.62900 -2.25759 0.59705 5.34376 -20.61020 -52.25680 -25.24400 9.81487 3.44883 47.06040 -1.65311 -66.91990 -33.35120 -6.83613 0.08283 2.75359 -28.20920 3.39149 
-8.87914 95.65920 -14.31390 9.19771 3.15570 98.38180 -6.58135 8.62387 -0.28746 -1.97603 17.38890 -2.37033 1.99764 -12.79150 4.02010 -0.00000 -0.00000 0.00000 -119.08800 -70.00120 -91.41310 -37.87690 56.63130 -78.32470 20.25400 6.58175 -14.96350 19.02730 0.43419 -0.40728 78.11300 -10.70980 69.59010 19.10350 34.29700 102.78100 17.59200 11.60850 6.42729 16.21990 1.46191 -6.41196 -32.48230 15.79870 79.28610 -10.08540 -1.94445 0.50144 4.75826 -22.79840 -54.32460 -25.34750 10.42440 3.61688 47.06550 -1.54768 -66.48740 -34.94960 -5.63154 0.48571 2.93573 -30.10230 3.05830 
-9.38086 95.83550 -14.41590 9.05723 3.28894 102.07400 -6.62153 8.59794 -0.10081 -2.03440 17.25800 -1.99807 2.84884 -13.13260 2.11543 -0.00000 -0.00000 0.00000 -107.00000 -65.52890 -81.93980 -31.04380 52.72110 -83.11570 21.32610 6.50246 -14.38520 20.41110 0.43911 -0.46332 78.18270 -12.27950 69.93810 18.50640 34.47620 103.01000 18.86270 11.93380 7.62740 16.20350 1.57604 -3.73866 -30.75440 15.14830 75.43160 -7.53579 -0.94328 0.43301 3.89989 -25.40110 -57.64650 -25.83280 10.30380 4.52106 47.69600 -0.63618 -63.65740 -34.14990 -4.92642 0.69251 2.17893 -26.99410 -0.85689 
-9.77263 96.09050 -14.57700 9.16655 3.17489 106.17600 -5.92613 8.82816 -0.33899 -1.97680 17.64860 -2.28238 3.26681 -12.25490 -0.73557 -0.00000 -0.00000 0.00000 -103.58100 -62.77790 -80.36810 -30.01540 50.26990 -83.31780 20.57740 6.55809 -14.78140 20.65210 0.57023 0.09998 79.38220 -13.42720 70.25850 18.40570 34.62520 103.19000 19.14890 12.00600 7.86945 16.41740 1.26668 -4.49362 -29.72280 14.14930 72.94120 -6.62406 1.29917 0.49494 2.68643 -28.82530 -58.91510 -25.70780 10.60610 4.86696 47.64110 0.46970 -63.08740 -33.96260 -2.71141 1.38058 2.59828 -28.98610 1.34770 
-10.33820 96.43380 -14.66850 9.05160 3.42282 110.19000 -5.52685 8.99814 -0.47009 -2.11491 17.94100 -2.33273 4.47732 -13.60380 -2.39976 -0.00000 -0.00000 0.00000 -103.46600 -60.38660 -81.52920 -28.53150 49.76700 -83.47030 20.99320 6.49992 -14.70720 21.25220 0.52665 -0.13180 79.95110 -14.10240 70.75640 18.87140 35.12390 103.25500 18.56320 11.92650 7.77159 16.27230 0.48883 -5.49234 -29.30040 13.38830 70.46430 -7.43354 1.93888 0.59587 3.04984 -27.65030 -59.62670 -26.25860 10.73710 4.78236 47.96460 1.52499 -61.56860 -34.27020 -0.91101 1.96191 2.44706 -28.22700 0.67632 
-10.66170 96.51790 -14.69930 8.79435 3.87788 113.44800 -5.95529 9.18512 -0.30079 -2.31109 18.26030 -2.07944 4.90495 -14.08510 -4.40224 -0.00000 -0.00000 0.00000 -100.13600 -57.61520 -80.05760 -26.79200 47.54270 -83.86130 21.33910 6.44105 -14.70390 22.02560 0.41890 -0.62981 79.96500 -13.76500 70.98880 18.51960 34.54850 103.80400 19.01370 11.89780 7.32573 15.43630 -0.36698 -5.04267 -28.24070 13.93440 67.94750 -8.76946 1.16946 0.65422 4.22550 -24.18140 -60.75720 -27.34500 10.16870 6.26024 49.07110 2.58207 -61.34690 -36.14930 0.79820 2.65191 2.61329 -28.63480 1.77100 
-11.19150 96.91050 -14.89530 9.25146 4.03935 117.39000 -4.33513 9.33632 -0.76392 -2.26165 18.58810 -2.38736 5.19805 -13.92130 -6.55519 -0.00000 -0.00000 0.00000 -96.06120 -54.46740 -77.71850 -24.32190 44.45340 -84.60660 20.26300 6.67787 -14.40820 21.38540 0.75022 0.81365 81.50990 -15.63660 70.98110 18.34280 34.80530 103.75100 18.27530 11.89180 7.74765 14.99650 0.19329 -6.74723 -26.88790 11.40510 67.16850 -3.84216 2.72573 0.31603 2.59933 -28.44930 -62.12820 -27.53170 10.95650 6.06274 48.87730 3.52497 -60.01060 -37.36370 4.84725 4.13938 3.47664 -32.64780 4.57340 
-11.59830 97.12920 -14.87670 9.48449 3.93445 120.64400 -3.71969 9.45037 -0.79833 -2.19092 18.82910 -2.15908 5.36292 -13.77320 -8.96142 -0.00000 -0.00000 0.00000 -92.94620 -51.81110 -76.31840 -23.50920 42.14970 -84.15480 20.19220 6.62791 -14.76150 22.42980 0.85492 1.13975 81.93760 -16.71150 71.31320 18.33430 35.12020 103.72700 18.20740 11.89770 7.82732 15.47660 -0.24080 -7.46581 -26.63050 10.68060 66.86650 -2.80857 4.89191 0.26206 1.33189 -30.88410 -65.58130 -27.27870 10.15230 6.38608 48.79510 5.77111 -59.59880 -38.64520 7.11828 5.10060 4.25044 -34.42290 7.57364 
-11.76440 97.21530 -14.83150 9.63635 4.04103 123.60400 -3.37250 9.61091 -0.80641 -2.13457 19.15610 -1.98569 5.44506 -14.34550 -10.56710 -0.00000 -0.00000 0.00000 -87.92820 -47.84700 -74.10620 -19.81650 37.56180 -86.00320 19.46130 6.98464 -13.38660 23.14570 0.90949 1.27985 82.49710 -17.17280 72.05000 18.33710 35.35730 103.55000 18.33690 11.85320 7.47583 15.40180 -0.71342 -7.97751 -25.88540 10.45930 66.56260 -0.80569 6.52078 0.04468 -0.37036 -33.99120 -68.23910 -27.78720 9.19332 7.70721 49.99900 7.82964 -58.23080 -37.27540 8.71851 5.44841 4.62089 -33.36850 10.83050 
-12.07770 97.43600 -14.80590 10.12230 3.94076 126.02000 -3.04280 9.81872 -0.62831 -1.62596 19.56690 -1.58100 5.17479 -14.37760 -11.82290 -0.00000 -0.00000 0.00000 -89.67620 -47.51660 -75.17310 -20.66970 38.93180 -84.62780 19.77600 6.83788 -13.95280 22.14640 0.86245 1.20274 84.02390 -17.15650 72.22770 18.78730 35.61320 103.25500 17.93840 11.70070 6.79273 15.45510 -1.01913 -7.96812 -24.91820 10.73400 64.59600 -0.75124 7.53301 0.03847 -0.48235 -34.11160 -68.64220 -27.20860 8.47362 7.68322 49.55670 10.30700 -55.60390 -36.85890 10.67650 6.04154 4.59323 -32.18600 12.15990 
-12.14420 97.51840 -14.65140 10.13930 4.51789 128.40199 -3.23695 9.98883 -0.47483 -1.72827 19.89690 -1.28526 4.93628 -14.95220 -13.21860 -0.00000 -0.00000 0.00000 -86.80610 -45.07230 -74.09270 -19.78120 36.26690 -84.44630 19.18610 6.95000 -13.86010 22.70150 0.94999 1.49543 84.24040 -17.53790 72.63340 19.29750 35.50160 102.53000 18.94170 11.78930 6.73610 14.80500 -1.21294 -7.53394 -24.03170 11.28460 61.49130 -1.26881 7.74361 0.10792 0.24463 -32.67500 -68.24250 -27.88250 8.47159 8.97689 49.54860 10.61970 -57.23980 -37.63940 11.23550 6.37271 6.55087 -34.93010 19.43160 
-12.33900 97.55420 -14.58470 10.23670 4.79532 130.89400 -3.00892 10.16780 -0.59849 -1.65304 20.25060 -1.40047 5.10261 -13.83300 -14.45250 -0.00000 -0.00000 0.00000 -83.58970 -42.52590 -72.80000 -18.29380 32.71310 -84.33080 19.13660 6.85469 -14.48580 22.21150 1.11216 2.22689 84.94750 -17.31630 72.84150 18.64070 35.36130 101.75100 17.08150 11.99270 9.21361 14.49720 -1.68724 -8.52795 -23.50580 11.23250 61.33310 -0.51078 8.96122 0.00444 -0.57988 -33.92550 -70.01170 -27.93130 8.13661 8.85972 49.18690 12.34880 -56.20500 -37.43250 11.44790 6.40745 6.52599 -37.53570 15.74860 
-12.34450 97.54260 -14.47070 10.37440 4.87282 133.66100 -2.58929 10.18590 -0.72892 -1.43563 20.31310 -1.49285 5.13858 -13.84460 -15.13340 -0.00000 -0.00000 0.00000 -79.85170 -39.08760 -71.25890 -15.36380 27.96850 -85.32400 17.35410 7.18670 -14.27070 22.91320 1.08203 2.00071 85.64360 -17.82870 73.39550 18.90570 36.16730 101.89800 17.67030 11.75720 7.30901 14.65880 -2.01119 -9.44583 -23.39820 10.65050 60.58490 2.59565 9.36625 -0.45614 -1.86573 -36.36520 -70.45620 -27.93120 8.16177 9.85173 49.23510 12.59590 -57.39170 -36.83000 9.96111 5.79575 6.22868 -36.13330 16.07970 
-12.39530 97.50250 -14.32110 10.33260 5.51953 136.07201 -2.78375 10.33720 -0.66595 -1.53248 20.59800 -1.38305 5.70646 -13.65360 -15.47410 -0.00000 -0.00000 0.00000 -79.85210 -38.54630 -72.03450 -16.44640 28.34220 -84.29680 17.48220 7.15860 -14.31640 22.75750 1.11497 2.15611 86.23870 -18.07130 73.58820 18.30590 35.79590 102.48900 17.90650 11.73800 7.04186 13.77140 -2.72563 -10.14700 -22.57270 11.78980 59.78950 2.80143 10.14070 -0.51005 -2.47418 -37.17220 -71.56740 -28.61180 8.63801 10.60480 48.86670 12.45580 -57.01200 -36.96400 9.38074 5.62260 5.53482 -34.89860 14.09060 
-12.37870 97.42510 -14.15060 10.45280 5.45287 137.89101 -2.43462 10.39030 -0.61193 -1.13585 20.69500 -1.20534 5.24305 -13.95890 -15.27170 -0.00000 -0.00000 0.00000 -80.20800 -37.50450 -72.72500 -15.91370 27.99460 -83.99390 17.21790 7.20152 -14.32330 21.67330 1.11307 2.31497 87.12750 -18.30230 73.87590 19.79250 36.42180 101.65900 17.34080 11.59660 6.50234 14.09210 -3.24049 -11.67490 -22.86290 11.42060 60.16020 4.31815 10.21480 -0.74826 -3.16695 -38.30490 -72.05720 -28.46430 8.00788 11.96380 48.38280 12.93150 -56.96970 -35.48700 8.87396 5.21587 5.46961 -34.20460 14.64360 
-12.40080 97.46570 -14.01150 10.62390 5.74136 139.96100 -2.36710 10.53850 -0.61130 -1.02977 20.99760 -1.18220 5.45565 -14.10030 -15.21910 -0.00000 -0.00000 0.00000 -79.97630 -36.53120 -73.46850 -15.66120 27.41710 -83.49630 17.44580 7.12787 -14.56180 22.64430 1.08511 2.05161 86.78690 -18.02940 74.66920 16.92120 35.95130 102.73600 17.70440 11.83900 7.79653 13.83480 -3.69395 -12.51560 -22.38070 11.91380 59.65250 4.54802 10.79610 -0.81042 -3.77316 -39.09750 -72.93430 -28.42780 8.39088 12.64100 47.32490 12.81900 -54.98260 -35.22440 9.04970 5.23062 4.83149 -33.17850 12.31900 
-12.37920 97.48420 -13.81820 10.41570 6.24360 141.36301 -2.73643 10.63880 -0.42943 -1.07375 21.14780 -0.95267 5.53336 -13.64210 -14.60800 -0.00000 -0.00000 0.00000 -78.49130 -34.49990 -72.92340 -14.36580 25.63520 -84.28630 18.78500 6.95127 -14.25580 23.23850 1.17528 2.32577 86.03460 -18.17700 75.32520 18.14860 36.21450 102.28700 17.96980 11.71780 6.87860 12.80080 -4.38807 -12.23380 -21.26740 13.62680 57.97880 2.89254 11.07950 -0.55330 -3.15245 -37.85570 -73.25970 -29.10400 8.73582 13.57240 45.82460 11.68950 -54.59950 -36.91250 11.69490 6.39454 7.05145 -39.30710 16.00030 
